<svg id="Layer_1" enable-background="new 0 0 512 512" height="512" viewBox="0 0 512 512" width="512" xmlns="http://www.w3.org/2000/svg"><g><path d="m472.9 64.267h-19.267v239.933c0 12.02-4.681 23.32-13.18 31.819l-128.533 128.534c-8.5 8.5-19.8 13.18-31.82 13.18h-191.733v19.267c0 8.284 6.716 15 15 15h369.533c8.284 0 15-6.716 15-15v-417.733c0-8.285-6.716-15-15-15z"/><path d="m288.133 158.533c-22.736 0-41.233 18.497-41.233 41.233v9.1h82.467v-9.1c0-22.736-18.497-41.233-41.234-41.233z"/><path d="m288.133 128.533c9.447 0 17.133-7.686 17.133-17.133-.941-22.73-33.329-22.723-34.267 0 .001 9.447 7.687 17.133 17.134 17.133z"/><path d="m265.1 304.2c0-8.284 6.716-15 15-15h143.533v-274.2c0-8.284-6.716-15-15-15h-369.533c-8.284 0-15 6.716-15 15v417.733c0 8.284 6.716 15 15 15h226zm-161.733-223.867h64.267c19.902.793 19.887 29.215 0 30h-64.267c-19.902-.792-19.887-29.214 0-30zm0 64.267h64.267c19.902.793 19.887 29.215 0 30h-64.267c-19.902-.792-19.887-29.215 0-30zm0 64.267h64.267c19.902.793 19.887 29.215 0 30h-64.267c-19.902-.793-19.887-29.215 0-30zm112.466 158.533h-112.466c-19.902-.793-19.887-29.215 0-30h112.467c19.902.792 19.886 29.215-.001 30zm0-64.267h-112.466c-19.902-.793-19.887-29.215 0-30h112.467c19.902.793 19.886 29.215-.001 30zm1.067-79.266v-24.1c0-25.379 13.352-47.686 33.389-60.306-23.02-30.473-.656-75.397 37.845-75.194 38.498-.205 60.866 44.728 37.844 75.194 20.038 12.62 33.389 34.927 33.389 60.306v24.1c0 8.284-6.716 15-15 15h-112.467c-8.284 0-15-6.716-15-15z"/><path d="m414.846 319.2h-119.746v119.746z"/></g></svg>